<svg width="1890" height="1890" xmlns="http://www.w3.org/2000/svg" xmlns:xlink="http://www.w3.org/1999/xlink" overflow="hidden"><defs><filter id="fx0" x="-10%" y="-10%" width="120%" height="120%" filterUnits="userSpaceOnUse" primitiveUnits="userSpaceOnUse"><feComponentTransfer color-interpolation-filters="sRGB"><feFuncR type="discrete" tableValues="0 0"/><feFuncG type="discrete" tableValues="0 0"/><feFuncB type="discrete" tableValues="0 0"/><feFuncA type="linear" slope="0.258824" intercept="0"/></feComponentTransfer><feGaussianBlur stdDeviation="7.11174 7.11174"/></filter><filter id="fx1" x="-10%" y="-10%" width="120%" height="120%" filterUnits="userSpaceOnUse" primitiveUnits="userSpaceOnUse"><feComponentTransfer color-interpolation-filters="sRGB"><feFuncR type="discrete" tableValues="0 0"/><feFuncG type="discrete" tableValues="0 0"/><feFuncB type="discrete" tableValues="0 0"/><feFuncA type="linear" slope="0.258824" intercept="0"/></feComponentTransfer><feGaussianBlur stdDeviation="7.11174 7.11174"/></filter><filter id="fx2" x="-10%" y="-10%" width="120%" height="120%" filterUnits="userSpaceOnUse" primitiveUnits="userSpaceOnUse"><feComponentTransfer color-interpolation-filters="sRGB"><feFuncR type="discrete" tableValues="0 0"/><feFuncG type="discrete" tableValues="0 0"/><feFuncB type="discrete" tableValues="0 0"/><feFuncA type="linear" slope="0.258824" intercept="0"/></feComponentTransfer><feGaussianBlur stdDeviation="7.11174 7.11174"/></filter><filter id="fx3" x="-10%" y="-10%" width="120%" height="120%" filterUnits="userSpaceOnUse" primitiveUnits="userSpaceOnUse"><feComponentTransfer color-interpolation-filters="sRGB"><feFuncR type="discrete" tableValues="0 0"/><feFuncG type="discrete" tableValues="0 0"/><feFuncB type="discrete" tableValues="0 0"/><feFuncA type="linear" slope="0.258824" intercept="0"/></feComponentTransfer><feGaussianBlur stdDeviation="7.11174 7.11174"/></filter><filter id="fx4" x="-10%" y="-10%" width="120%" height="120%" filterUnits="userSpaceOnUse" primitiveUnits="userSpaceOnUse"><feComponentTransfer color-interpolation-filters="sRGB"><feFuncR type="discrete" tableValues="0 0"/><feFuncG type="discrete" tableValues="0 0"/><feFuncB type="discrete" tableValues="0 0"/><feFuncA type="linear" slope="0.258824" intercept="0"/></feComponentTransfer><feGaussianBlur stdDeviation="7.11174 7.11174"/></filter><filter id="fx5" x="-10%" y="-10%" width="120%" height="120%" filterUnits="userSpaceOnUse" primitiveUnits="userSpaceOnUse"><feComponentTransfer color-interpolation-filters="sRGB"><feFuncR type="discrete" tableValues="0 0"/><feFuncG type="discrete" tableValues="0 0"/><feFuncB type="discrete" tableValues="0 0"/><feFuncA type="linear" slope="0.258824" intercept="0"/></feComponentTransfer><feGaussianBlur stdDeviation="7.11174 7.11174"/></filter><filter id="fx6" x="-10%" y="-10%" width="120%" height="120%" filterUnits="userSpaceOnUse" primitiveUnits="userSpaceOnUse"><feComponentTransfer color-interpolation-filters="sRGB"><feFuncR type="discrete" tableValues="0 0"/><feFuncG type="discrete" tableValues="0 0"/><feFuncB type="discrete" tableValues="0 0"/><feFuncA type="linear" slope="0.258824" intercept="0"/></feComponentTransfer><feGaussianBlur stdDeviation="7.11174 7.11174"/></filter><filter id="fx7" x="-10%" y="-10%" width="120%" height="120%" filterUnits="userSpaceOnUse" primitiveUnits="userSpaceOnUse"><feComponentTransfer color-interpolation-filters="sRGB"><feFuncR type="discrete" tableValues="0 0"/><feFuncG type="discrete" tableValues="0 0"/><feFuncB type="discrete" tableValues="0 0"/><feFuncA type="linear" slope="0.258824" intercept="0"/></feComponentTransfer><feGaussianBlur stdDeviation="7.11174 7.11174"/></filter><filter id="fx8" x="-10%" y="-10%" width="120%" height="120%" filterUnits="userSpaceOnUse" primitiveUnits="userSpaceOnUse"><feComponentTransfer color-interpolation-filters="sRGB"><feFuncR type="discrete" tableValues="0 0"/><feFuncG type="discrete" tableValues="0 0"/><feFuncB type="discrete" tableValues="0 0"/><feFuncA type="linear" slope="0.258824" intercept="0"/></feComponentTransfer><feGaussianBlur stdDeviation="7.11174 7.11174"/></filter><filter id="fx9" x="-10%" y="-10%" width="120%" height="120%" filterUnits="userSpaceOnUse" primitiveUnits="userSpaceOnUse"><feComponentTransfer color-interpolation-filters="sRGB"><feFuncR type="discrete" tableValues="0 0"/><feFuncG type="discrete" tableValues="0 0"/><feFuncB type="discrete" tableValues="0 0"/><feFuncA type="linear" slope="0.258824" intercept="0"/></feComponentTransfer><feGaussianBlur stdDeviation="7.11174 7.11174"/></filter><filter id="fx10" x="-10%" y="-10%" width="120%" height="120%" filterUnits="userSpaceOnUse" primitiveUnits="userSpaceOnUse"><feComponentTransfer color-interpolation-filters="sRGB"><feFuncR type="discrete" tableValues="0 0"/><feFuncG type="discrete" tableValues="0 0"/><feFuncB type="discrete" tableValues="0 0"/><feFuncA type="linear" slope="0.258824" intercept="0"/></feComponentTransfer><feGaussianBlur stdDeviation="7.11174 7.11174"/></filter><clipPath id="clip11"><rect x="0" y="0" width="1890" height="1890"/></clipPath><clipPath id="clip12"><path d="M500.501 843C481.999 843 467 857.999 467 876.501L467 1010.5C467 1029 481.999 1044 500.501 1044L862.499 1044C881.001 1044 896 1029 896 1010.5L896 876.501C896 857.999 881.001 843 862.499 843ZM2.81632e-05 2.81632e-05 1890 2.81632e-05 1890 1890 2.81632e-05 1890Z" fill-rule="evenodd" clip-rule="evenodd"/></clipPath><clipPath id="clip13"><path d="M1027.5 843C1009 843 994 857.999 994 876.501L994 1010.5C994 1029 1009 1044 1027.5 1044L1389.5 1044C1408 1044 1423 1029 1423 1010.5L1423 876.501C1423 857.999 1408 843 1389.5 843ZM2.81632e-05 2.81632e-05 1890 2.81632e-05 1890 1890 2.81632e-05 1890Z" fill-rule="evenodd" clip-rule="evenodd"/></clipPath><clipPath id="clip14"><path d="M764.667 1100C746.073 1100 731 1115.07 731 1133.67L731 1268.33C731 1286.93 746.073 1302 764.667 1302L1125.33 1302C1143.93 1302 1159 1286.93 1159 1268.33L1159 1133.67C1159 1115.07 1143.93 1100 1125.33 1100ZM2.81632e-05 2.81632e-05 1890 2.81632e-05 1890 1890 2.81632e-05 1890Z" fill-rule="evenodd" clip-rule="evenodd"/></clipPath><clipPath id="clip15"><path d="M764.667 575C746.073 575 731 590.073 731 608.667L731 743.333C731 761.927 746.073 777 764.667 777L1125.33 777C1143.93 777 1159 761.927 1159 743.333L1159 608.667C1159 590.073 1143.93 575 1125.33 575ZM2.81632e-05 2.81632e-05 1890 2.81632e-05 1890 1890 2.81632e-05 1890Z" fill-rule="evenodd" clip-rule="evenodd"/></clipPath><clipPath id="clip16"><path d="M1274.67 478C1255.52 478 1240 493.521 1240 512.667L1240 651.333C1240 670.479 1255.52 686 1274.67 686L1649.33 686C1668.48 686 1684 670.479 1684 651.333L1684 512.667C1684 493.521 1668.48 478 1649.33 478ZM2.81632e-05 2.81632e-05 1890 2.81632e-05 1890 1890 2.81632e-05 1890Z" fill-rule="evenodd" clip-rule="evenodd"/></clipPath><clipPath id="clip17"><path d="M240.667 478C221.521 478 206 493.521 206 512.667L206 651.333C206 670.479 221.521 686 240.667 686L615.333 686C634.479 686 650 670.479 650 651.333L650 512.667C650 493.521 634.479 478 615.333 478ZM2.81632e-05 2.81632e-05 1890 2.81632e-05 1890 1890 2.81632e-05 1890Z" fill-rule="evenodd" clip-rule="evenodd"/></clipPath><clipPath id="clip18"><path d="M1274.67 1204C1255.52 1204 1240 1219.52 1240 1238.67L1240 1377.33C1240 1396.48 1255.52 1412 1274.67 1412L1649.33 1412C1668.48 1412 1684 1396.48 1684 1377.33L1684 1238.67C1684 1219.52 1668.48 1204 1649.33 1204ZM2.81632e-05 2.81632e-05 1890 2.81632e-05 1890 1890 2.81632e-05 1890Z" fill-rule="evenodd" clip-rule="evenodd"/></clipPath><clipPath id="clip19"><path d="M240.667 1204C221.521 1204 206 1219.52 206 1238.67L206 1377.33C206 1396.48 221.521 1412 240.667 1412L615.333 1412C634.479 1412 650 1396.48 650 1377.33L650 1238.67C650 1219.52 634.479 1204 615.333 1204ZM2.81632e-05 2.81632e-05 1890 2.81632e-05 1890 1890 2.81632e-05 1890Z" fill-rule="evenodd" clip-rule="evenodd"/></clipPath><clipPath id="clip20"><path d="M760.334 134C741.372 134 726 149.372 726 168.334L726 305.666C726 324.628 741.372 340 760.334 340L1129.67 340C1148.63 340 1164 324.628 1164 305.666L1164 168.334C1164 149.372 1148.63 134 1129.67 134ZM2.81632e-05 2.81632e-05 1890 2.81632e-05 1890 1890 2.81632e-05 1890Z" fill-rule="evenodd" clip-rule="evenodd"/></clipPath><clipPath id="clip21"><path d="M1084.33 1488C1065.37 1488 1050 1503.37 1050 1522.33L1050 1659.67C1050 1678.63 1065.37 1694 1084.33 1694L1454.67 1694C1473.63 1694 1489 1678.63 1489 1659.67L1489 1522.33C1489 1503.37 1473.63 1488 1454.67 1488ZM2.81632e-05 2.81632e-05 1890 2.81632e-05 1890 1890 2.81632e-05 1890Z" fill-rule="evenodd" clip-rule="evenodd"/></clipPath><clipPath id="clip22"><path d="M435.334 1488C416.372 1488 401 1503.37 401 1522.33L401 1659.67C401 1678.63 416.372 1694 435.334 1694L805.666 1694C824.628 1694 840 1678.63 840 1659.67L840 1522.33C840 1503.37 824.628 1488 805.666 1488ZM2.81632e-05 2.81632e-05 1890 2.81632e-05 1890 1890 2.81632e-05 1890Z" fill-rule="evenodd" clip-rule="evenodd"/></clipPath></defs><g clip-path="url(#clip11)"><rect x="0" y="0" width="1890" height="1890" fill="#FFFFFF"/><path d="M27.5 945.5C27.5 438.503 438.503 27.5 945.5 27.5 1452.5 27.5 1863.5 438.503 1863.5 945.5 1863.5 1452.5 1452.5 1863.5 945.5 1863.5 438.503 1863.5 27.5 1452.5 27.5 945.5Z" stroke="#042433" stroke-width="0.666725" stroke-linejoin="round" stroke-miterlimit="10" stroke-opacity="0.34902" fill="#FDC300" fill-rule="evenodd"/><path d="M403.5 945.5C403.5 646.162 646.162 403.5 945.5 403.5 1244.84 403.5 1487.5 646.162 1487.5 945.5 1487.5 1244.84 1244.84 1487.5 945.5 1487.5 646.162 1487.5 403.5 1244.84 403.5 945.5Z" stroke="#042433" stroke-width="0.666725" stroke-linejoin="round" stroke-miterlimit="10" stroke-opacity="0.34902" fill="#FAFF06" fill-rule="evenodd"/><g clip-path="url(#clip12)"><g filter="url(#fx0)" transform="translate(432 822)"><g><path d="M23.5714 58.0196C23.5714 39.1475 38.8702 23.8487 57.7422 23.8487L426.98 23.8487C445.852 23.8487 461.151 39.1475 461.151 58.0196L461.151 194.698C461.151 213.57 445.852 228.869 426.98 228.869L57.7422 228.869C38.8702 228.869 23.5714 213.57 23.5714 194.698Z" stroke="#042433" stroke-width="2" stroke-miterlimit="8" fill="#D9D9D9" fill-rule="evenodd"/></g></g></g><path d="M467 876.501C467 857.999 481.999 843 500.501 843L862.499 843C881.001 843 896 857.999 896 876.501L896 1010.5C896 1029 881.001 1044 862.499 1044L500.501 1044C481.999 1044 467 1029 467 1010.5Z" stroke="#042433" stroke-width="2.00018" stroke-miterlimit="8" fill="#D9D9D9" fill-rule="evenodd"/><text font-family="RTA Office,RTA Office_MSFontService,sans-serif" font-weight="400" font-size="59" transform="translate(511.136 956)">Organization</text><g clip-path="url(#clip13)"><g filter="url(#fx1)" transform="translate(959 822)"><g><path d="M23.5713 58.0196C23.5713 39.1475 38.8701 23.8487 57.7422 23.8487L426.98 23.8487C445.852 23.8487 461.151 39.1475 461.151 58.0196L461.151 194.698C461.151 213.57 445.852 228.869 426.98 228.869L57.7422 228.869C38.8701 228.869 23.5713 213.57 23.5713 194.698Z" stroke="#042433" stroke-width="2" stroke-miterlimit="8" fill="#D9D9D9" fill-rule="evenodd"/></g></g></g><path d="M994 876.501C994 857.999 1009 843 1027.5 843L1389.5 843C1408 843 1423 857.999 1423 876.501L1423 1010.5C1423 1029 1408 1044 1389.5 1044L1027.5 1044C1009 1044 994 1029 994 1010.5Z" stroke="#042433" stroke-width="2.00018" stroke-miterlimit="8" fill="#D9D9D9" fill-rule="evenodd"/><text font-family="RTA Office,RTA Office_MSFontService,sans-serif" font-weight="400" font-size="59" transform="translate(1053.75 956)">Information</text><g clip-path="url(#clip14)"><g filter="url(#fx2)" transform="translate(696 1079)"><g><path d="M23.5913 58.1891C23.5913 39.2234 38.966 23.8486 57.9317 23.8486L425.811 23.8486C444.777 23.8486 460.151 39.2234 460.151 58.1891L460.151 195.548C460.151 214.514 444.777 229.889 425.811 229.889L57.9317 229.889C38.966 229.889 23.5913 214.514 23.5913 195.548Z" stroke="#042433" stroke-width="2" stroke-miterlimit="8" fill="#D9D9D9" fill-rule="evenodd"/></g></g></g><path d="M731 1133.67C731 1115.07 746.073 1100 764.667 1100L1125.33 1100C1143.93 1100 1159 1115.07 1159 1133.67L1159 1268.33C1159 1286.93 1143.93 1302 1125.33 1302L764.667 1302C746.073 1302 731 1286.93 731 1268.33Z" stroke="#042433" stroke-width="2.00018" stroke-miterlimit="8" fill="#D9D9D9" fill-rule="evenodd"/><text font-family="RTA Office,RTA Office_MSFontService,sans-serif" font-weight="400" font-size="59" transform="translate(766.318 1214)">Value Stream</text><g clip-path="url(#clip15)"><g filter="url(#fx3)" transform="translate(696 554)"><g><path d="M23.5913 58.1892C23.5913 39.2234 38.966 23.8487 57.9317 23.8487L425.811 23.8487C444.777 23.8487 460.151 39.2234 460.151 58.1892L460.151 195.548C460.151 214.514 444.777 229.889 425.811 229.889L57.9317 229.889C38.966 229.889 23.5913 214.514 23.5913 195.548Z" stroke="#042433" stroke-width="2" stroke-miterlimit="8" fill="#D9D9D9" fill-rule="evenodd"/></g></g></g><path d="M731 608.667C731 590.073 746.073 575 764.667 575L1125.33 575C1143.93 575 1159 590.073 1159 608.667L1159 743.333C1159 761.927 1143.93 777 1125.33 777L764.667 777C746.073 777 731 761.927 731 743.333Z" stroke="#042433" stroke-width="2.00018" stroke-miterlimit="8" fill="#D9D9D9" fill-rule="evenodd"/><text font-family="RTA Office,RTA Office_MSFontService,sans-serif" font-weight="400" font-size="59" transform="translate(792.153 689)">Capabilities</text><g clip-path="url(#clip16)"><g filter="url(#fx4)" transform="translate(1204 457)"><g><path d="M24.2712 59.2095C24.2712 39.6803 40.1028 23.8487 59.6319 23.8487L441.791 23.8487C461.32 23.8487 477.151 39.6803 477.151 59.2095L477.151 200.648C477.151 220.177 461.32 236.009 441.791 236.009L59.6319 236.009C40.1028 236.009 24.2712 220.177 24.2712 200.648Z" stroke="#042433" stroke-width="2" stroke-miterlimit="8" fill="#D9D9D9" fill-rule="evenodd"/></g></g></g><path d="M1240 512.667C1240 493.521 1255.52 478 1274.67 478L1649.33 478C1668.48 478 1684 493.521 1684 512.667L1684 651.333C1684 670.479 1668.48 686 1649.33 686L1274.67 686C1255.52 686 1240 670.479 1240 651.333Z" stroke="#042433" stroke-width="2.00018" stroke-miterlimit="8" fill="#D9D9D9" fill-rule="evenodd"/><text font-family="RTA Office,RTA Office_MSFontService,sans-serif" font-weight="400" font-size="53" transform="translate(1272.61 562)">Vision, Strategy</text><text font-family="RTA Office,RTA Office_MSFontService,sans-serif" font-weight="400" font-size="53" transform="translate(1352.95 626)">&amp; Tactics</text><g clip-path="url(#clip17)"><g filter="url(#fx5)" transform="translate(170 457)"><g><path d="M24.2713 59.2095C24.2713 39.6803 40.1029 23.8487 59.632 23.8487L441.791 23.8487C461.32 23.8487 477.151 39.6803 477.151 59.2095L477.151 200.648C477.151 220.177 461.32 236.009 441.791 236.009L59.632 236.009C40.1029 236.009 24.2713 220.177 24.2713 200.648Z" stroke="#042433" stroke-width="2" stroke-miterlimit="8" fill="#D9D9D9" fill-rule="evenodd"/></g></g></g><path d="M206 512.667C206 493.521 221.521 478 240.667 478L615.333 478C634.479 478 650 493.521 650 512.667L650 651.333C650 670.479 634.479 686 615.333 686L240.667 686C221.521 686 206 670.479 206 651.333Z" stroke="#042433" stroke-width="2.00018" stroke-miterlimit="8" fill="#D9D9D9" fill-rule="evenodd"/><text font-family="RTA Office,RTA Office_MSFontService,sans-serif" font-weight="400" font-size="53" transform="translate(248.779 562)">Policies, Rules,</text><text font-family="RTA Office,RTA Office_MSFontService,sans-serif" font-weight="400" font-size="53" transform="translate(260.026 626)">&amp; Regulations</text><g clip-path="url(#clip18)"><g filter="url(#fx6)" transform="translate(1204 1183)"><g><path d="M24.2712 59.2095C24.2712 39.6803 40.1028 23.8488 59.6319 23.8488L441.791 23.8488C461.32 23.8488 477.151 39.6803 477.151 59.2095L477.151 200.648C477.151 220.177 461.32 236.009 441.791 236.009L59.6319 236.009C40.1028 236.009 24.2712 220.177 24.2712 200.648Z" stroke="#042433" stroke-width="2" stroke-miterlimit="8" fill="#D9D9D9" fill-rule="evenodd"/></g></g></g><path d="M1240 1238.67C1240 1219.52 1255.52 1204 1274.67 1204L1649.33 1204C1668.48 1204 1684 1219.52 1684 1238.67L1684 1377.33C1684 1396.48 1668.48 1412 1649.33 1412L1274.67 1412C1255.52 1412 1240 1396.48 1240 1377.33Z" stroke="#042433" stroke-width="2.00018" stroke-miterlimit="8" fill="#D9D9D9" fill-rule="evenodd"/><text font-family="RTA Office,RTA Office_MSFontService,sans-serif" font-weight="400" font-size="53" transform="translate(1319.94 1288)">Initiatives &amp;</text><text font-family="RTA Office,RTA Office_MSFontService,sans-serif" font-weight="400" font-size="53" transform="translate(1365.78 1352)">Projects</text><g clip-path="url(#clip19)"><g filter="url(#fx7)" transform="translate(170 1183)"><g><path d="M24.2713 59.2095C24.2713 39.6803 40.1029 23.8488 59.632 23.8488L441.791 23.8488C461.32 23.8488 477.151 39.6803 477.151 59.2095L477.151 200.648C477.151 220.177 461.32 236.009 441.791 236.009L59.632 236.009C40.1029 236.009 24.2713 220.177 24.2713 200.648Z" stroke="#042433" stroke-width="2" stroke-miterlimit="8" fill="#D9D9D9" fill-rule="evenodd"/></g></g></g><path d="M206 1238.67C206 1219.52 221.521 1204 240.667 1204L615.333 1204C634.479 1204 650 1219.52 650 1238.67L650 1377.33C650 1396.48 634.479 1412 615.333 1412L240.667 1412C221.521 1412 206 1396.48 206 1377.33Z" stroke="#042433" stroke-width="2.00018" stroke-miterlimit="8" fill="#D9D9D9" fill-rule="evenodd"/><text font-family="RTA Office,RTA Office_MSFontService,sans-serif" font-weight="400" font-size="53" transform="translate(297.866 1288)">Products &amp;</text><text font-family="RTA Office,RTA Office_MSFontService,sans-serif" font-weight="400" font-size="53" transform="translate(328.956 1352)">Services</text><g clip-path="url(#clip20)"><g filter="url(#fx8)" transform="translate(690 113)"><g><path d="M24.3913 58.8693C24.3913 39.5279 40.0706 23.8486 59.4119 23.8486L436.131 23.8486C455.472 23.8486 471.151 39.5279 471.151 58.8693L471.151 198.948C471.151 218.289 455.472 233.969 436.131 233.969L59.4119 233.969C40.0706 233.969 24.3913 218.289 24.3913 198.948Z" stroke="#042433" stroke-width="2" stroke-miterlimit="8" fill="#D9D9D9" fill-rule="evenodd"/></g></g></g><path d="M726 168.334C726 149.372 741.372 134 760.334 134L1129.67 134C1148.63 134 1164 149.372 1164 168.334L1164 305.666C1164 324.628 1148.63 340 1129.67 340L760.334 340C741.372 340 726 324.628 726 305.666Z" stroke="#042433" stroke-width="2.00018" stroke-miterlimit="8" fill="#D9D9D9" fill-rule="evenodd"/><text font-family="RTA Office,RTA Office_MSFontService,sans-serif" font-weight="400" font-size="53" transform="translate(787.236 249)">Stakeholders</text><g clip-path="url(#clip21)"><g filter="url(#fx9)" transform="translate(1014 1467)"><g><path d="M24.3713 58.8694C24.3713 39.528 40.0507 23.8486 59.3921 23.8486L437.131 23.8486C456.472 23.8486 472.151 39.528 472.151 58.8694L472.151 198.948C472.151 218.289 456.472 233.969 437.131 233.969L59.3921 233.969C40.0507 233.969 24.3713 218.289 24.3713 198.948Z" stroke="#042433" stroke-width="2" stroke-miterlimit="8" fill="#D9D9D9" fill-rule="evenodd"/></g></g></g><path d="M1050 1522.33C1050 1503.37 1065.37 1488 1084.33 1488L1454.67 1488C1473.63 1488 1489 1503.37 1489 1522.33L1489 1659.67C1489 1678.63 1473.63 1694 1454.67 1694L1084.33 1694C1065.37 1694 1050 1678.63 1050 1659.67Z" stroke="#042433" stroke-width="2.00018" stroke-miterlimit="8" fill="#D9D9D9" fill-rule="evenodd"/><text font-family="RTA Office,RTA Office_MSFontService,sans-serif" font-weight="400" font-size="53" transform="translate(1142.79 1571)">Decision &amp;</text><text font-family="RTA Office,RTA Office_MSFontService,sans-serif" font-weight="400" font-size="53" transform="translate(1186.04 1635)">Events</text><g clip-path="url(#clip22)"><g filter="url(#fx10)" transform="translate(365 1467)"><g><path d="M24.3713 58.8694C24.3713 39.528 40.0506 23.8486 59.3921 23.8486L437.131 23.8486C456.472 23.8486 472.151 39.528 472.151 58.8694L472.151 198.948C472.151 218.289 456.472 233.969 437.131 233.969L59.3921 233.969C40.0506 233.969 24.3713 218.289 24.3713 198.948Z" stroke="#042433" stroke-width="2" stroke-miterlimit="8" fill="#D9D9D9" fill-rule="evenodd"/></g></g></g><path d="M401 1522.33C401 1503.37 416.372 1488 435.334 1488L805.666 1488C824.628 1488 840 1503.37 840 1522.33L840 1659.67C840 1678.63 824.628 1694 805.666 1694L435.334 1694C416.372 1694 401 1678.63 401 1659.67Z" stroke="#042433" stroke-width="2.00018" stroke-miterlimit="8" fill="#D9D9D9" fill-rule="evenodd"/><text font-family="RTA Office,RTA Office_MSFontService,sans-serif" font-weight="400" font-size="53" transform="translate(508.273 1571)">Metrics &amp;</text><text font-family="RTA Office,RTA Office_MSFontService,sans-serif" font-weight="400" font-size="53" transform="translate(506.36 1635)">Measures</text></g></svg>